<svg width="40" height="40" viewBox="0 0 40 40" fill="none" xmlns="http://www.w3.org/2000/svg"><rect width="40" height="40" fill="#E5E5E5"/><path d="M20 20C18.0109 20 16.1032 19.41 14.5967 18.3034C13.0902 17.1968 12 15.5712 12 13.7778C12 11.9843 13.0902 10.3587 14.5967 9.25212C16.1032 8.14554 18.0109 7.55556 20 7.55556C21.9891 7.55556 23.8968 8.14554 25.4033 9.25212C26.9098 10.3587 28 11.9843 28 13.7778C28 15.5712 26.9098 17.1968 25.4033 18.3034C23.8968 19.41 21.9891 20 20 20ZM20 35.5556C11.162 35.5556 10 30.618 10 30.618C10 26.8782 13.134 23.7778 20 23.7778C26.866 23.7778 30 26.8782 30 30.618C30 30.618 28.838 35.5556 20 35.5556Z" fill="#949494"/></svg>
